<?xml version="1.0" encoding="UTF-8"?>
<svg xmlns="http://www.w3.org/2000/svg" viewBox="0 0 1120 280" role="img" aria-label="Many rooms converge into Unified Solutions, which feeds Honest Calibration™."><defs><linearGradient id="hubGrad2" x1="0%" y1="0%" x2="100%" y2="100%"><stop offset="0%" stop-color="#0B1D30"/><stop offset="100%" stop-color="#16324A"/></linearGradient><marker id="arrowGold2" markerWidth="8" markerHeight="8" refX="6" refY="3" orient="auto"><path d="M0,0 L6,3 L0,6 Z" fill="#C4903A"/></marker></defs><rect width="1120" height="280" fill="#F7F3ED"/><g font-family="'DM Sans', system-ui, sans-serif" font-size="11" font-weight="600" fill="#0B1D30"><rect x="40" y="40" width="200" height="30" rx="15" fill="#fff" stroke="rgba(11,29,48,0.12)"/><text x="140" y="59" text-anchor="middle">IT services pods</text><rect x="40" y="82" width="200" height="30" rx="15" fill="#fff" stroke="rgba(11,29,48,0.12)"/><text x="140" y="101" text-anchor="middle">F500 transformation</text><rect x="40" y="124" width="200" height="30" rx="15" fill="#fff" stroke="rgba(11,29,48,0.12)"/><text x="140" y="143" text-anchor="middle">Credit-union VPs</text><rect x="40" y="166" width="200" height="30" rx="15" fill="#fff" stroke="rgba(11,29,48,0.12)"/><text x="140" y="185" text-anchor="middle">Utilities · nonprofit · ops</text></g><g fill="none" stroke="#C4903A" stroke-width="1.5" stroke-opacity="0.5"><path d="M240 55 C320 55, 340 130, 420 140"/><path d="M240 97 C320 97, 350 135, 420 140"/><path d="M240 139 C320 139, 360 140, 420 140"/><path d="M240 181 C320 181, 350 150, 420 140"/></g><rect x="420" y="100" width="180" height="80" rx="14" fill="url(#hubGrad2)"/><text x="510" y="136" text-anchor="middle" font-family="Georgia, serif" font-size="14" font-weight="700" fill="#E8C48A">Unified Solutions</text><text x="510" y="158" text-anchor="middle" font-family="'DM Sans', sans-serif" font-size="10" fill="rgba(247,243,237,0.75)">synthesis</text><path d="M600 140 H680" stroke="#C4903A" stroke-width="2.5" marker-end="url(#arrowGold2)"/><circle cx="800" cy="140" r="58" fill="#fff" stroke="#C4903A" stroke-width="3"/><text x="800" y="134" text-anchor="middle" font-family="Georgia, serif" font-size="12" font-weight="700" fill="#0B1D30">Honest</text><text x="800" y="152" text-anchor="middle" font-family="Georgia, serif" font-size="12" font-weight="700" fill="#0B1D30">Calibration™</text><text x="560" y="250" text-anchor="middle" font-family="Georgia, serif" font-size="14" font-style="italic" fill="#0B1D30">Inside-out work, not sage on the stage.</text></svg>